<mxfile host="app.diagrams.net" modified="2024-06-10T09:42:17.898Z" agent="Mozilla/5.0 (Windows NT 10.0; Win64; x64) AppleWebKit/537.36 (KHTML, like Gecko) Chrome/125.0.0.0 Safari/537.36" version="24.5.2" etag="Nn4Ol2HBstQ7vEYRU84Z" type="github">
  <diagram name="페이지-1" id="tJ771jzq0e_pedaxbtlv">
    <mxGraphModel>
      <root>
        <mxCell id="0" />
        <mxCell id="1" parent="0" />
      </root>
    </mxGraphModel>
  </diagram>
</mxfile>
